<?xml version="1.0" encoding="utf-8"?>
<!-- Generator: Adobe Illustrator 22.1.0, SVG Export Plug-In . SVG Version: 6.00 Build 0)  -->
<svg version="1.1" id="Layer_1" xmlns="http://www.w3.org/2000/svg" xmlns:xlink="http://www.w3.org/1999/xlink" x="0px" y="0px"
	 viewBox="0 0 512 512" style="enable-background:new 0 0 512 512;" xml:space="preserve">
<style type="text/css">
	.st0{fill:#4B4C4E;}
</style>
<path class="st0" d="M256,64c123.5,0,224,79,224,176S379.5,416,256,416c-28.3,0-56.3-4.3-83.2-12.8l-15.2-4.8l-13,9.2
	c-23,16.3-58.5,35.3-102.6,39.6c12-15.1,29.8-40.4,40.8-69.6l7.1-18.7l-13.7-14.6C47.3,313.7,32,277.6,32,240
	C32,143,132.5,64,256,64 M256,32C114.6,32,0,125.1,0,240c0,47.6,19.9,91.2,52.9,126.3C38,405.7,7,439.1,6.5,439.5
	c-6.6,7-8.4,17.2-4.6,26s12.4,14.5,22,14.5c61.5,0,110-25.7,139.1-46.3c29,9.1,60.2,14.3,93,14.3c141.4,0,256-93.1,256-208
	S397.4,32,256,32z"/>
</svg>
