<?xml version="1.0" ?><svg id="Layer_1" style="enable-background:new 0 0 64 64;" version="1.1" viewBox="0 0 64 64" xml:space="preserve" xmlns="http://www.w3.org/2000/svg" xmlns:xlink="http://www.w3.org/1999/xlink"><style type="text/css">
	.st0{fill:#414042;}
	.st1{fill:#FFFFFF;}
	.st2{fill:#95C149;}
	.st3{fill:#A9D860;}
	.st4{fill:#F1F2F2;}
	.st5{fill:#A7A9AC;}
	.st6{fill:#E6E7E8;}
	.st7{fill:#32768E;}
	.st8{fill:#88C5D3;}
	.st9{fill:#FCE275;}
	.st10{fill:#BCBEC0;}
	.st11{fill:#27AAE1;}
	.st12{fill:#F96476;}
	.st13{fill:#BEE27F;}
	.st14{fill:#D8BD4C;}
	.st15{fill:none;}
</style><g><path class="st0" d="M38,35.4L38,35.4c1.8-0.9,2.5-3.1,1.6-4.8l-4.3-8.4c-0.4-0.9-1.2-1.5-2.1-1.8c-0.9-0.3-1.9-0.2-2.7,0.2l-0.1,0   l-2.8-5.6c-0.7-1.4-2.4-1.9-3.8-1.2l-1.6,0.8c-0.7,0.3-1.2,0.9-1.4,1.6c-0.2,0.5-0.2,1.1,0,1.6l-7.6,11.6l-7.1,3.6   c-1.8,0.9-2.6,3.2-1.6,5l4.1,8.1c0.5,0.9,1.2,1.5,2.2,1.9c0.4,0.1,0.8,0.2,1.2,0.2c0.3,0,0.7-0.1,1-0.2l5.2,7   c0.5,0.7,1.4,1.1,2.3,1.1c0.4,0,0.9-0.1,1.3-0.3l1.6-0.8c0.7-0.4,1.3-1.1,1.5-1.9s0-1.7-0.5-2.3l-4.6-6.2l1-0.5l13.9,0.7   c0.3,0.4,0.8,0.7,1.3,0.9c0.3,0.1,0.6,0.1,0.9,0.1c0.4,0,0.9-0.1,1.3-0.3l1.6-0.8c0.7-0.3,1.2-0.9,1.4-1.6c0.2-0.7,0.2-1.5-0.2-2.2   L38,35.4z M31.5,22.4c0.4-0.2,0.8-0.2,1.2-0.1c0.4,0.1,0.7,0.4,0.9,0.8l4.3,8.4c0.4,0.8,0.1,1.7-0.7,2.1l-0.1,0L31.5,22.4   L31.5,22.4z M10.4,45.3l-4.1-8.1c-0.4-0.8-0.1-1.9,0.8-2.3l6.4-3.3l5.7,11.2l-6.4,3.3c-0.4,0.2-0.9,0.2-1.3,0.1   S10.6,45.7,10.4,45.3z M17.9,45.7l4.8,6.5c0.2,0.3,0.2,0.5,0.1,0.7s-0.1,0.4-0.4,0.5l-1.6,0.8c-0.4,0.2-0.8,0.1-1-0.2l-5-6.7   l2.4-1.2L17.9,45.7z M21.1,42.3L15,30.3L21.8,20l0,0.1l11.6,22.8L21.1,42.3z M39.1,42.5c-0.1,0.2-0.2,0.4-0.4,0.5l-1.6,0.8   c-0.2,0.1-0.4,0.1-0.6,0c-0.2-0.1-0.4-0.2-0.5-0.4L22.8,17.6c-0.1-0.2-0.1-0.4,0-0.6c0.1-0.2,0.2-0.4,0.4-0.5l1.6-0.8   c0.1-0.1,0.2-0.1,0.4-0.1c0.1,0,0.2,0,0.3,0c0.2,0.1,0.4,0.2,0.5,0.4l13.2,25.9C39.2,42.1,39.2,42.3,39.1,42.5z"/><path class="st0" d="M39.9,25.2c0.2,0.4,0.8,0.6,1.2,0.4l14.6-7.4c0.4-0.2,0.6-0.8,0.4-1.2c-0.2-0.4-0.8-0.6-1.2-0.4L40.3,24   C39.8,24.2,39.6,24.7,39.9,25.2z"/><path class="st0" d="M39,21.8c0.1-0.1,0.2-0.1,0.3-0.2L50.1,9.2c0.3-0.4,0.3-1-0.1-1.3c-0.4-0.3-1-0.3-1.3,0.1L37.9,20.4   c-0.3,0.4-0.3,1,0.1,1.3C38.3,21.9,38.7,22,39,21.8z"/><path class="st0" d="M58.9,26.3l-16.3,1.5c-0.5,0-0.9,0.5-0.8,1c0,0.5,0.5,0.9,1,0.8l16.3-1.5c0.1,0,0.2,0,0.3-0.1   c0.3-0.2,0.5-0.5,0.5-0.9C59.9,26.7,59.4,26.3,58.9,26.3z"/></g></svg>