<?xml version="1.0" encoding="utf-8"?>
<!-- Generator: Adobe Illustrator 22.1.0, SVG Export Plug-In . SVG Version: 6.00 Build 0)  -->
<svg version="1.1" id="Layer_1" xmlns="http://www.w3.org/2000/svg" xmlns:xlink="http://www.w3.org/1999/xlink" x="0px" y="0px"
	 viewBox="0 0 512 512" style="enable-background:new 0 0 512 512;" xml:space="preserve">
<style type="text/css">
	.st0{fill:#FFFFFF;}
</style>
<path class="st0" d="M461.9,0c-5.7,0-11.6,1.1-17.4,3.5L28.7,195.4c-48,22.4-32,92.8,19.2,92.8h175.9v175.9
	c0,30,24.2,47.9,48.7,47.9c17.3,0,34.8-8.9,44-28.7L508.5,67.5C522.1,34.9,494.1,0,461.9,0z M479.4,54.1L287.6,469.7
	c-3.2,6.8-8.2,10.3-15,10.3c-5.8,0-16.8-3.3-16.8-15.9V256.2H47.9c-11.5,0-14.6-8.8-15.5-12.6c-1.1-4.9-1.3-14,9.7-19.1L456.8,33
	c1.7-0.7,3.4-1,5.1-1c5.4,0,11.5,3.7,15.1,9.1C479.2,44.4,481.3,49.5,479.4,54.1z"/>
</svg>
