<svg width="384" height="512" xmlns="http://www.w3.org/2000/svg" xmlns:svg="http://www.w3.org/2000/svg" xmlns:se="http://svg-edit.googlecode.com" class="svg-inline--fa fa-plus fa-w-12" data-icon="plus" data-prefix="fal">
 <g class="layer">
  <title>Layer 1</title>
  <path d="m376,232l-160,0l0,-160c0,-4.42 -3.58,-8 -8,-8l-32,0c-4.42,0 -8,3.58 -8,8l0,160l-160,0c-4.42,0 -8,3.58 -8,8l0,32c0,4.42 3.58,8 8,8l160,0l0,160c0,4.42 3.58,8 8,8l32,0c4.42,0 8,-3.58 8,-8l0,-160l160,0c4.42,0 8,-3.58 8,-8l0,-32c0,-4.42 -3.58,-8 -8,-8z" fill="#ffffff" id="svg_1"/>
 </g>
</svg>
